<svg fill="#c0c7ca" xmlns="http://www.w3.org/2000/svg" width="27" height="27" viewBox="0 0 27 27"><path d="M26.048 11.117l-2.577-.43c-.185-.766-.46-1.498-.813-2.182l1.65-2.046c.35-.435.334-1.058-.035-1.475L23.248 3.83c-.373-.416-.988-.504-1.46-.207L19.58 5.01c-.97-.676-2.068-1.176-3.253-1.467L15.897.95C15.807.404 15.33 0 14.772 0h-1.545c-.557 0-1.033.403-1.122.95l-.434 2.594c-.98.24-1.896.627-2.735 1.137L6.84 3.188c-.452-.323-1.073-.272-1.467.12L4.28 4.4c-.393.395-.443 1.016-.12 1.467l1.5 2.1c-.505.833-.89 1.747-1.128 2.718l-2.606.435c-.55.09-.95.566-.95 1.124v1.544c0 .557.4 1.033.95 1.124l2.606.435c.197.8.483 1.562.862 2.27L3.75 19.65c-.35.433-.334 1.055.036 1.472l1.025 1.154c.374.418.99.504 1.46.208l2.237-1.405c.946.644 2.017 1.12 3.166 1.402l.435 2.592c.09.548.565.95 1.122.95h1.544c.557 0 1.032-.402 1.123-.95l.432-2.592c.965-.237 1.873-.618 2.703-1.118l2.185 1.56c.45.324 1.07.273 1.465-.122l1.092-1.092c.394-.393.447-1.013.12-1.466l-1.555-2.18c.507-.835.892-1.75 1.13-2.726l2.578-.432c.552-.09.952-.566.952-1.123V12.24c0-.556-.402-1.032-.952-1.123zm-12.02 6.776c-2.694 0-4.88-2.186-4.88-4.88s2.186-4.88 4.88-4.88 4.88 2.186 4.88 4.88-2.185 4.88-4.88 4.88z"/></svg>