<svg fill="#00abfd" xmlns="http://www.w3.org/2000/svg" width="30" height="31" viewBox="0 0 30 31"><path d="M15 .417c-8.284 0-15 6.716-15 15s6.716 15 15 15 15-6.716 15-15-6.716-15-15-15zm0 28c-7.168 0-13-5.832-13-13s5.832-13 13-13 13 5.832 13 13-5.832 13-13 13zM23 15c0 .553-.447 1-1 1H10.414l5.293 5.5c.39.392.39 1.128 0 1.52-.195.194-.45.344-.707.344s-.512-.07-.707-.267l-7-6.987c-.39-.39-.39-1.017 0-1.407l7-6.997c.39-.39 1.023-.39 1.414.002s.39.815 0 1.206L10.414 14H22c.553 0 1 .447 1 1z"/></svg>