<svg fill="#c1e9fc" xmlns="http://www.w3.org/2000/svg" width="26" height="26" viewBox="0 0 26 26"><path d="M26 13c0-.12-.062-.23-.162-.295L25 12.17V12h-.27l-3.873-2.467c-.16-.103-.38-.055-.483.107-.104.163-.056.38.107.483L23.43 12H14V2.57l1.877 2.948c.104.163.32.21.482.107.16-.104.21-.32.104-.483L14 1.27V1h-.172l-.533-.838C13.23.062 13.12 0 13 0s-.23.06-.295.162L12.172 1H12v.27L9.533 5.142c-.037.057-.054.123-.054.187 0 .113.054.23.16.293.16.104.38.056.48-.107L12 2.57V12H2.572l2.946-1.876c.164-.104.21-.32.108-.484-.105-.162-.322-.21-.483-.107L1.27 12H1v.17l-.838.535C.062 12.77 0 12.88 0 13s.062.23.162.295L1 13.83V14h.27l3.873 2.467c.058.037.123.055.188.055.118 0 .23-.058.3-.162.103-.163.055-.38-.108-.483L2.572 14H12v9.43l-1.877-2.948c-.104-.163-.32-.21-.482-.107-.102.067-.16.18-.16.295 0 .064.02.13.056.188L12 24.73V25h.172l.533.838c.064.1.176.162.295.162s.23-.06.295-.162l.533-.838H14v-.27l2.467-3.873c.103-.162.056-.38-.107-.483-.162-.104-.38-.056-.482.107L14 23.43V14h9.428l-2.946 1.876c-.163.104-.21.32-.107.483.067.1.18.16.296.16.067 0 .13-.02.19-.056L24.73 14H25v-.17l.838-.535c.1-.064.162-.175.162-.295z"/></svg>